<?xml version="1.0" encoding="UTF-8" standalone="no"?>
<!-- Created with Inkscape (http://www.inkscape.org/) -->

<svg
   xmlns:dc="http://purl.org/dc/elements/1.1/"
   xmlns:cc="http://creativecommons.org/ns#"
   xmlns:rdf="http://www.w3.org/1999/02/22-rdf-syntax-ns#"
   xmlns:svg="http://www.w3.org/2000/svg"
   xmlns="http://www.w3.org/2000/svg"
   xmlns:xlink="http://www.w3.org/1999/xlink"
   xmlns:sodipodi="http://sodipodi.sourceforge.net/DTD/sodipodi-0.dtd"
   xmlns:inkscape="http://www.inkscape.org/namespaces/inkscape"
   width="64px"
   height="64px"
   id="svg2985"
   version="1.1"
   inkscape:version="0.48.3.1 r9886"
   sodipodi:docname="arronax.svg">
  <defs
     id="defs2987">
    <linearGradient
       id="linearGradient3847">
      <stop
         id="stop3849"
         offset="0"
         style="stop-color:#000000;stop-opacity:1;" />
      <stop
         id="stop3851"
         offset="1"
         style="stop-color:#000000;stop-opacity:0;" />
    </linearGradient>
    <linearGradient
       id="linearGradient3825">
      <stop
         style="stop-color:#000000;stop-opacity:1;"
         offset="0"
         id="stop3827" />
      <stop
         id="stop3859"
         offset="0.0625"
         style="stop-color:#f50000;stop-opacity:0.93725491;" />
      <stop
         id="stop3857"
         offset="0.125"
         style="stop-color:#000000;stop-opacity:0.8745098;" />
      <stop
         id="stop3855"
         offset="0.25"
         style="stop-color:#000000;stop-opacity:0.74901961;" />
      <stop
         id="stop3853"
         offset="0.5"
         style="stop-color:#000000;stop-opacity:0.49803922;" />
      <stop
         style="stop-color:#000000;stop-opacity:0;"
         offset="1"
         id="stop3829" />
    </linearGradient>
    <linearGradient
       inkscape:collect="always"
       xlink:href="#linearGradient3825"
       id="linearGradient3831"
       x1="0.1337513"
       y1="0.20062695"
       x2="63.933125"
       y2="63.732498"
       gradientUnits="userSpaceOnUse" />
    <linearGradient
       inkscape:collect="always"
       xlink:href="#linearGradient3825"
       id="linearGradient3845"
       x1="0"
       y1="31.030304"
       x2="62.194359"
       y2="31.030304"
       gradientUnits="userSpaceOnUse" />
  </defs>
  <sodipodi:namedview
     id="base"
     pagecolor="#ffffff"
     bordercolor="#666666"
     borderopacity="1.0"
     inkscape:pageopacity="0.0"
     inkscape:pageshadow="2"
     inkscape:zoom="1"
     inkscape:cx="32"
     inkscape:cy="29.419757"
     inkscape:current-layer="layer1"
     showgrid="true"
     inkscape:document-units="px"
     inkscape:grid-bbox="true"
     inkscape:window-width="1600"
     inkscape:window-height="1176"
     inkscape:window-x="0"
     inkscape:window-y="24"
     inkscape:window-maximized="1" />
  <metadata
     id="metadata2990">
    <rdf:RDF>
      <cc:Work
         rdf:about="">
        <dc:format>image/svg+xml</dc:format>
        <dc:type
           rdf:resource="http://purl.org/dc/dcmitype/StillImage" />
        <dc:title />
      </cc:Work>
    </rdf:RDF>
  </metadata>
  <g
     id="layer1"
     inkscape:label="Layer 1"
     inkscape:groupmode="layer">
    <text
       xml:space="preserve"
       style="font-size:100.78739929px;font-style:normal;font-weight:normal;line-height:125%;letter-spacing:0px;word-spacing:0px;fill:#d40000;fill-opacity:1;stroke:none;font-family:Sans"
       x="6.9539766"
       y="63.899212"
       id="text2993"
       sodipodi:linespacing="125%"><tspan
         sodipodi:role="line"
         id="tspan2995"
         x="6.9539766"
         y="63.899212"
         style="font-size:100.78739929px;font-style:normal;font-variant:normal;font-weight:500;font-stretch:normal;fill:#d40000;font-family:Inconsolata;-inkscape-font-specification:Inconsolata Medium">A</tspan></text>
    <text
       xml:space="preserve"
       style="font-size:19.2183876px;font-style:normal;font-weight:normal;line-height:125%;letter-spacing:0px;word-spacing:0px;fill:#d40000;fill-opacity:1;stroke:none;font-family:Sans"
       x="25.381346"
       y="40.122002"
       id="text3783"
       sodipodi:linespacing="125%"><tspan
         sodipodi:role="line"
         id="tspan3785"
         x="25.381346"
         y="40.122002">x</tspan></text>
    <path
       style="fill:#005a78;fill-opacity:1;stroke:none"
       d="m 8.4330199,63.947419 c 0,-0.02539 21.9125381,-63.2841537 22.0425371,-63.63405351 l 0.106762,-0.2873581 0.371138,0.01985549 0.371138,0.01985549 12.126944,31.89968663 c 6.66982,17.544827 12.127366,31.90721 12.12788,31.916405 5.35e-4,0.0092 -1.634952,0.01672 -3.63437,0.01672 l -3.635307,0 -3.479831,-9.178683 -3.47983,-9.178684 -9.954873,0 -9.954874,0 -3.076248,9.212122 -3.076248,9.212121 -3.427409,0 c -1.8850752,0 -3.4274091,-0.0081 -3.4274091,-0.01799 z M 39.804672,40.007202 c -0.03113,-0.08276 -2.005683,-5.401881 -4.387903,-11.820272 -2.382221,-6.41839 -4.358104,-11.741686 -4.390853,-11.829546 -0.03275,-0.08786 -0.07572,-0.14357 -0.09549,-0.123799 -0.03122,0.03121 -8.186017,23.841531 -8.186017,23.901459 0,0.01244 3.851292,0.02263 8.558428,0.02263 l 8.558428,0 -0.05659,-0.15047 0,0 z"
       id="path3787"
       inkscape:connector-curvature="0" />
    <path
       style="fill:#005a78;fill-opacity:1;stroke:none"
       d="m 26.071312,40.106831 c 0.03651,-0.04598 0.946745,-1.270398 2.022756,-2.720935 1.792755,-2.416758 1.949192,-2.648884 1.870404,-2.77534 -0.04729,-0.0759 -0.863562,-1.180334 -1.813941,-2.4543 -0.950378,-1.273965 -1.72796,-2.33478 -1.72796,-2.357366 0,-0.02259 0.422361,-0.04107 0.93858,-0.04107 l 0.93858,0 1.385349,1.869574 c 0.761942,1.028266 1.400395,1.86988 1.418786,1.870253 0.01839,3.74e-4 0.657056,-0.840935 1.419257,-1.869574 l 1.385818,-1.870253 0.970019,0 0.970019,0 -1.282078,1.722048 c -2.155746,2.895533 -2.459951,3.310408 -2.458519,3.352936 7.6e-4,0.02255 0.459694,0.659247 1.019854,1.414878 0.56016,0.755631 1.44744,1.952675 1.971734,2.660097 l 0.953262,1.286221 -0.982658,-0.01851 -0.982658,-0.01851 -1.45997,-1.971827 c -0.802984,-1.084505 -1.496966,-2.007821 -1.542182,-2.051814 -0.06449,-0.06274 -0.411613,0.366023 -1.609929,1.988545 l -1.527718,2.068534 -0.971589,0 c -0.768086,0 -0.957687,-0.01751 -0.905216,-0.0836 z"
       id="path3789"
       inkscape:connector-curvature="0" />
    <path
       style="fill:#005a78;fill-opacity:1;stroke:none"
       d="m 10.088192,63.915307 c -0.873563,-0.01056 -1.5882965,-0.02665 -1.5882965,-0.03574 0,-0.03386 22.0684965,-63.72554402 22.0952205,-63.76881291 0.0153,-0.0247669 0.179001,-0.03474867 0.363787,-0.02218171 0.316607,0.02153193 0.341608,0.03695141 0.433733,0.26750261 0.05377,0.13455948 3.820862,10.04026501 8.37132,22.01267901 4.550458,11.972413 9.954474,26.190519 12.008924,31.595791 2.05445,5.40527 3.729019,9.833922 3.721263,9.841447 -0.0078,0.0075 -1.621235,0.0239 -3.58551,0.03639 l -3.571409,0.02271 -3.480193,-9.178683 -3.480192,-9.178683 -9.979339,0 -9.979339,0 -1.534174,4.597701 c -0.843796,2.528735 -2.23463,6.681713 -3.090743,9.22884 l -1.556569,4.631139 -1.780093,-0.01545 c -0.979051,-0.0085 -2.494827,-0.02409 -3.36839,-0.03465 z M 39.864577,40.112666 c 0,-0.155489 -8.864583,-23.895291 -8.916217,-23.87808 -0.06089,0.0203 -8.194776,23.664748 -8.200982,23.839492 -0.0024,0.06645 1.752049,0.08359 8.557115,0.08359 4.708046,0 8.560084,-0.02025 8.560084,-0.04501 z"
       id="path3791"
       inkscape:connector-curvature="0" />
  </g>
</svg>
